<svg xmlns="http://www.w3.org/2000/svg" width="28" height="28" viewBox="0 0 28 28" fill="none">
<mask id="mask0_10_449" style="mask-type:alpha" maskUnits="userSpaceOnUse" x="0" y="0" width="28" height="28">
<rect width="28" height="28" fill="#D9D9D9"/>
</mask>
<g mask="url(#mask0_10_449)">
<mask id="path-2-inside-1_10_449" fill="white">
<path fill-rule="evenodd" clip-rule="evenodd" d="M6.80005 2.10001C4.59091 2.10001 2.80005 3.89087 2.80005 6.10001V21.9C2.80005 24.1091 4.59091 25.9 6.80005 25.9H15.0601C13.9606 24.5687 13.3 22.8615 13.3 21C13.3 16.7474 16.7475 13.3 21 13.3C21.4781 13.3 21.9461 13.3436 22.4 13.427V6.10001C22.4 3.89087 20.6092 2.10001 18.4 2.10001H6.80005ZM14 3.50001H7.70005V11.9L10.85 9.80001L14 11.9V3.50001ZM26.6 20.65C26.6 23.9361 23.9361 26.6 20.65 26.6C17.364 26.6 14.7 23.9361 14.7 20.65C14.7 17.3639 17.364 14.7 20.65 14.7C23.9361 14.7 26.6 17.3639 26.6 20.65ZM23.8001 20.6554L18.9 23.8V17.5L23.8001 20.6554Z"/>
</mask>
<path fill-rule="evenodd" clip-rule="evenodd" d="M6.80005 2.10001C4.59091 2.10001 2.80005 3.89087 2.80005 6.10001V21.9C2.80005 24.1091 4.59091 25.9 6.80005 25.9H15.0601C13.9606 24.5687 13.3 22.8615 13.3 21C13.3 16.7474 16.7475 13.3 21 13.3C21.4781 13.3 21.9461 13.3436 22.4 13.427V6.10001C22.4 3.89087 20.6092 2.10001 18.4 2.10001H6.80005ZM14 3.50001H7.70005V11.9L10.85 9.80001L14 11.9V3.50001ZM26.6 20.65C26.6 23.9361 23.9361 26.6 20.65 26.6C17.364 26.6 14.7 23.9361 14.7 20.65C14.7 17.3639 17.364 14.7 20.65 14.7C23.9361 14.7 26.6 17.3639 26.6 20.65ZM23.8001 20.6554L18.9 23.8V17.5L23.8001 20.6554Z" fill="#2D2929"/>
<path d="M15.0601 25.9V26.9H17.1829L15.8311 25.2632L15.0601 25.9ZM22.4 13.427L22.2194 14.4105L23.4 14.6274V13.427H22.4ZM7.70005 3.50001V2.50001H6.70005V3.50001H7.70005ZM14 3.50001H15V2.50001H14V3.50001ZM7.70005 11.9H6.70005V13.7685L8.25475 12.7321L7.70005 11.9ZM10.85 9.80001L11.4047 8.96796L10.85 8.59816L10.2953 8.96796L10.85 9.80001ZM14 11.9L13.4453 12.7321L15 13.7685V11.9H14ZM18.9 23.8H17.9V25.63L19.4402 24.6416L18.9 23.8ZM23.8001 20.6554L24.3402 21.497L25.6493 20.6568L24.3415 19.8146L23.8001 20.6554ZM18.9 17.5L19.4415 16.6592L17.9 15.6667V17.5H18.9ZM3.80005 6.10001C3.80005 4.44315 5.1432 3.10001 6.80005 3.10001V1.10001C4.03862 1.10001 1.80005 3.33859 1.80005 6.10001H3.80005ZM3.80005 21.9V6.10001H1.80005V21.9H3.80005ZM6.80005 24.9C5.1432 24.9 3.80005 23.5569 3.80005 21.9H1.80005C1.80005 24.6614 4.03863 26.9 6.80005 26.9V24.9ZM15.0601 24.9H6.80005V26.9H15.0601V24.9ZM12.3 21C12.3 23.1024 13.047 25.0329 14.289 26.5368L15.8311 25.2632C14.8742 24.1045 14.3 22.6206 14.3 21H12.3ZM21 12.3C16.1952 12.3 12.3 16.1951 12.3 21H14.3C14.3 17.2997 17.2997 14.3 21 14.3V12.3ZM22.5807 12.4434C22.0674 12.3491 21.539 12.3 21 12.3V14.3C21.4173 14.3 21.8247 14.338 22.2194 14.4105L22.5807 12.4434ZM21.4 6.10001V13.427H23.4V6.10001H21.4ZM18.4 3.10001C20.0569 3.10001 21.4 4.44315 21.4 6.10001H23.4C23.4 3.33858 21.1615 1.10001 18.4 1.10001V3.10001ZM6.80005 3.10001H18.4V1.10001H6.80005V3.10001ZM7.70005 4.50001H14V2.50001H7.70005V4.50001ZM8.70005 11.9V3.50001H6.70005V11.9H8.70005ZM10.2953 8.96796L7.14535 11.068L8.25475 12.7321L11.4047 10.6321L10.2953 8.96796ZM14.5547 11.068L11.4047 8.96796L10.2953 10.6321L13.4453 12.7321L14.5547 11.068ZM13 3.50001V11.9H15V3.50001H13ZM20.65 27.6C24.4884 27.6 27.6 24.4884 27.6 20.65H25.6C25.6 23.3838 23.3839 25.6 20.65 25.6V27.6ZM13.7 20.65C13.7 24.4884 16.8117 27.6 20.65 27.6V25.6C17.9162 25.6 15.7 23.3838 15.7 20.65H13.7ZM20.65 13.7C16.8117 13.7 13.7 16.8116 13.7 20.65H15.7C15.7 17.9162 17.9162 15.7 20.65 15.7V13.7ZM27.6 20.65C27.6 16.8116 24.4884 13.7 20.65 13.7V15.7C23.3839 15.7 25.6 17.9162 25.6 20.65H27.6ZM19.4402 24.6416L24.3402 21.497L23.2599 19.8138L18.3599 22.9584L19.4402 24.6416ZM17.9 17.5V23.8H19.9V17.5H17.9ZM24.3415 19.8146L19.4415 16.6592L18.3586 18.3408L23.2586 21.4961L24.3415 19.8146Z" fill="#2D2929" mask="url(#path-2-inside-1_10_449)"/>
</g>
</svg>